<svg xmlns="http://www.w3.org/2000/svg" width="16" height="16" viewBox="0 0 16 16"><path id="path" fill="currentColor" fill-rule="evenodd" d="m14.489 8.388l-.001.006a.1.1 0 0 1-.027.028a.43.43 0 0 1-.264.082h-3.186c-3.118 0-4.68 3.77-2.476 5.974a6.5 6.5 0 1 1 5.953-6.09Zm-.292 1.616c.913 0 1.736-.618 1.79-1.529a8 8 0 1 0-7.032 7.468c1.243-.147 1.527-1.639.641-2.525c-1.26-1.26-.367-3.414 1.415-3.414zM10 5a1 1 0 1 1-2 0a1 1 0 0 1 2 0M6 7a1 1 0 1 0 0-2a1 1 0 0 0 0 2m0 2a1 1 0 1 1-2 0a1 1 0 0 1 2 0" clip-rule="evenodd"/></svg>