<svg xmlns="http://www.w3.org/2000/svg" width="24" height="24" viewBox="0 0 24 24">
	<path d="M0 0h24v24H0z" fill="none" />
	<path fill="currentColor" d="M11.625 15.513q-.175-.063-.325-.213l-3.6-3.6q-.3-.3-.288-.7t.288-.7q.3-.3.713-.312t.712.287L11 12.15V5q0-.425.288-.712T12 4t.713.288T13 5v7.15l1.875-1.875q.3-.3.713-.288t.712.313q.275.3.288.7t-.288.7l-3.6 3.6q-.15.15-.325.213t-.375.062t-.375-.062M6 20q-.825 0-1.412-.587T4 18v-2q0-.425.288-.712T5 15t.713.288T6 16v2h12v-2q0-.425.288-.712T19 15t.713.288T20 16v2q0 .825-.587 1.413T18 20z" />
</svg>

