<svg width="24" height="24" viewBox="0 0 30 31" fill="none" xmlns="http://www.w3.org/2000/svg">
<path d="M0.89502 15.7103C0.89502 12.5085 0.89502 10.9083 1.62238 9.58228C2.34695 8.25484 3.67439 7.43236 6.32788 5.7846L9.12543 4.04871C11.93 2.30724 13.333 1.43719 14.8828 1.43719C16.4327 1.43719 17.8342 2.30724 20.6402 4.04871L23.4377 5.7846C26.0912 7.43236 27.4187 8.25484 28.1446 9.58228C28.8706 10.9097 28.8706 12.5085 28.8706 15.7089V17.8379C28.8706 23.2931 28.8706 26.0221 27.2312 27.7175C25.5919 29.4128 22.9552 29.4128 17.6804 29.4128H12.0852C6.81046 29.4128 4.17236 29.4128 2.53439 27.7175C0.896418 26.0221 0.89502 23.2945 0.89502 17.8379V15.7103Z" stroke="#080808" stroke-width="1.78997"/>
<path d="M14.8828 19.0109V23.2072" stroke="#080808" stroke-width="1.78997" stroke-linecap="round"/>
</svg>
