<svg width="12" height="12" viewBox="0 0 12 12" xmlns="http://www.w3.org/2000/svg">
<path d="M4.33333 8.66667C3.12222 8.66667 2.09733 8.24711 1.25867 7.408C0.42 6.56889 0.000444797 5.544 3.52734e-07 4.33333C-0.000444092 3.12267 0.419111 2.09778 1.25867 1.25867C2.09822 0.419556 3.12311 0 4.33333 0C5.54356 0 6.56867 0.419556 7.40867 1.25867C8.24867 2.09778 8.668 3.12267 8.66667 4.33333C8.66667 4.82222 8.58889 5.28333 8.43333 5.71667C8.27778 6.15 8.06667 6.53333 7.8 6.86667L11.5333 10.6C11.6556 10.7222 11.7167 10.8778 11.7167 11.0667C11.7167 11.2556 11.6556 11.4111 11.5333 11.5333C11.4111 11.6556 11.2556 11.7167 11.0667 11.7167C10.8778 11.7167 10.7222 11.6556 10.6 11.5333L6.86667 7.8C6.53333 8.06667 6.15 8.27778 5.71667 8.43333C5.28333 8.58889 4.82222 8.66667 4.33333 8.66667ZM4.33333 7.33333C5.16667 7.33333 5.87511 7.04178 6.45867 6.45867C7.04222 5.87556 7.33378 5.16711 7.33333 4.33333C7.33289 3.49956 7.04133 2.79133 6.45867 2.20867C5.876 1.626 5.16756 1.33422 4.33333 1.33333C3.49911 1.33244 2.79089 1.62422 2.20867 2.20867C1.62644 2.79311 1.33467 3.50133 1.33333 4.33333C1.332 5.16533 1.62378 5.87378 2.20867 6.45867C2.79356 7.04356 3.50178 7.33511 4.33333 7.33333Z" fill="currentColor" fill-opacity="0.41"/>
</svg>
