<svg xmlns="http://www.w3.org/2000/svg" width="24" height="24" viewBox="0 0 24 24"><path id="path" fill="none" stroke="currentColor" stroke-linecap="round" stroke-linejoin="round" stroke-width="1.5" d="M7.05 6.462a2 2 0 0 0 2.63-1.519l.32-1.72a9 9 0 0 1 3.998 0l.322 1.72a2 2 0 0 0 2.63 1.519l1.649-.58a9 9 0 0 1 2.001 3.46l-1.33 1.14a2 2 0 0 0 0 3.037l1.33 1.139a9 9 0 0 1-2.001 3.46l-1.65-.58a2 2 0 0 0-2.63 1.519L14 20.777a9 9 0 0 1-3.998 0l-.322-1.72a2 2 0 0 0-2.63-1.519l-1.649.58a9 9 0 0 1-2.001-3.46l1.33-1.14a2 2 0 0 0 0-3.036L3.4 9.342a9 9 0 0 1 2-3.46zM12 9a3 3 0 1 1 0 6a3 3 0 0 1 0-6" clip-rule="evenodd"/></svg>