<svg version="1.2" xmlns="http://www.w3.org/2000/svg" viewBox="0 0 512 512" width="512" height="512">
	<title>chart-line-svg</title>
	<style>
		.s0 { fill: #000000 } 
	</style>
	<path id="Layer" fill-rule="evenodd" class="s0" d="m90.6 380.1c0 7.6 6.2 13.8 13.7 13.8h344.7c15.3 0 27.6 12.3 27.6 27.5 0 15.3-12.3 27.6-27.6 27.6h-344.7c-38 0-68.9-30.8-68.9-68.9v-289.5c0-15.3 12.3-27.6 27.6-27.6 15.2 0 27.6 12.3 27.6 27.6zm350.4-214.9l-110.3 110.3c-10.8 10.8-28.3 10.8-39 0l-49.5-49.4-77 76.9c-10.8 10.8-28.3 10.8-39.1 0-10.7-10.7-10.7-28.2 0-39l96.6-96.5c10.7-10.8 28.2-10.8 39 0l49.4 49.4 90.8-90.8c10.8-10.7 28.2-10.7 39 0 10.8 10.8 10.8 28.3 0 39.1z"/>
</svg>