<svg version="1.2" xmlns="http://www.w3.org/2000/svg" viewBox="0 0 600 600" width="600" height="600">
	<style>
		.s0 { fill: #bb5e5e } 
	</style>
	<g id="Layer">
		<g id="Layer">
			<path id="Layer" class="s0" d="m44.9 454.8c-4.5 0-8.2-3.7-8.2-8.2v-287.2h-26.5c-4.5 0-8.2-3.7-8.2-8.2 0-4.5 3.7-8.2 8.2-8.2h34.7c4.6 0 8.2 3.7 8.2 8.2v295.5c0 4.4-3.6 8.1-8.2 8.1z"/>
		</g>
		<g id="Layer">
			<path id="Layer" fill-rule="evenodd" class="s0" d="m11.3 196.4c0-3.2 2.6-5.8 5.8-5.8h30.2c3.2 0 5.8 2.6 5.8 5.8v41.2c0 3.2-2.6 5.8-5.8 5.8h-30.2c-3.2 0-5.8-2.6-5.8-5.8zm16.5 30.6h8.9v-19.8h-8.9z"/>
		</g>
		<g id="Layer">
			<path id="Layer" fill-rule="evenodd" class="s0" d="m10.6 261.6c0-3.2 2.6-5.8 5.8-5.8h30.2c3.2 0 5.8 2.6 5.8 5.8v91.6c0 3.2-2.6 5.8-5.8 5.8h-30.2c-3.2 0-5.8-2.6-5.8-5.8zm16.5 81.1h8.9v-70.4h-8.9z"/>
		</g>
		<g id="Layer">
			<g id="Layer">
				<path id="Layer" fill-rule="evenodd" class="s0" d="m452.5 400.3c-11.8 0-23.7-2-35.3-6-56.5-19.5-86.5-81.4-67-137.8 19.6-56.4 81.5-86.6 137.8-67 27.4 9.5 49.5 29 62.1 55.1 12.6 26 14.4 55.4 5 82.8-15.6 44.7-57.7 72.9-102.6 72.9zm-7.2-16.8c13 1 26-0.8 37.9-5.1-16.8-6.9-30.1-21.2-35.7-39.2-3.5-0.4-7.1-1.1-10.6-2.4-1.7-0.6-3.3-1.3-4.8-2-1.6 4.7-2.3 9.5-2.3 14.3 0 12.9 5.4 25.5 15.5 34.4zm-57.3-26.2c9 9 19.9 16 32.5 20.7-4.7-8.9-7.1-18.8-7.1-28.9 0-8.2 1.5-16.4 4.9-24.2-3.6-3.8-6.8-8.4-9-13.3-13.5 8.3-21.8 23.1-21.8 38.9 0 2.3 0.2 4.6 0.5 6.8zm76.5-19.5c6.7 16.8 22.8 28.3 41.4 28.9 10.3-7.4 19.3-17 26.1-28.3-17.5 5.5-36.9 3.2-52.7-7.1-4.6 2.9-9.5 5.2-14.8 6.5zm-103.5-37.3c1.2 12.9 5.2 25.4 11.6 36.6 4-17.9 15.7-33.5 32.4-42.1-0.4-5.4 0.2-10.8 1.6-16-17.9-2.4-36 5.8-45.6 21.5zm130.3 18.9c16 8.5 35.7 6.9 50.3-4.6 3.3-12.7 3.8-25.7 1.7-38.4-9.8 15.5-26.2 26.3-44.9 28.5-0.3 0.9-0.4 1.7-0.7 2.4-1.7 4.3-3.7 8.4-6.4 12.1zm-57.9-3c2.7 2.1 5.8 3.8 8.9 4.8 3.7 1.3 7.5 1.9 11.3 1.7 7.4-0.3 14.3-3.1 19.7-8.1 3.8-3.5 6.8-7.9 8.5-12.9 0.7-1.8 1.1-3.8 1.4-5.9 1-7.2-0.5-14.6-4.5-20.8-3.8-6.1-9.4-10.5-16-12.8-0.3-0.1-0.6-0.1-0.7-0.3-7-2.2-14.5-1.9-21.3 0.9-6.8 2.8-12.3 7.8-15.7 14.3-0.8 1.6-1.4 3-2 4.4-1.8 5.4-2.1 11.2-1 16.7 1.6 7.1 5.7 13.5 11.4 18zm62.6-43.9c2.2 4.9 3.5 10.2 3.9 15.6 17.8-3.7 31.9-17.6 35.6-35.7-0.1-0.3-0.3-0.5-0.3-0.7-5.6-11.7-13.4-21.7-23.1-29.9 0.5 2.7 0.6 5.5 0.6 8.3 0 15.3-5.7 30.6-16.7 42.4zm-133.9 2.7c14.5-11.2 33.6-15.6 52-11.4 3.1-4.4 7.1-8 11.5-11.2-12.1-13.6-31.2-18.8-48.8-13-4.5 6.7-8.3 14-11.2 22.1-1.5 4.4-2.6 8.9-3.5 13.5zm111.4-26.2c4.8 2.4 9.2 5.5 13 9.3 6.5-8.2 9.8-18.3 9.8-28.3 0-7.5-1.9-15-5.6-21.8-2.7-1.2-5.3-2.3-8-3.3-9.8-3.4-19.7-5-29.4-5.1 12.8 11.6 20.3 28.2 20.3 45.9-0.1 1.1-0.1 2.3-0.1 3.3zm-79.5-28.1c18.3 0.9 35.7 9.6 47 24.8 5.3-1.3 10.6-1.7 16-1.1-0.5-18.2-11.7-34.5-29-41.3-12.5 3.3-24.1 9.4-34 17.6z"/>
			</g>
		</g>
		<g id="Layer">
			<g id="Layer">
				<path id="Layer" fill-rule="evenodd" class="s0" d="m207.6 400.3c-14.1 0-28.1-2.7-41.4-8.3-26.8-11-47.6-31.8-58.8-58.5-11.2-26.7-11.2-56.2-0.1-83 11-26.8 31.8-47.6 58.5-58.8 26.7-11.2 56.2-11.2 83-0.1 26.8 11 47.6 31.9 58.8 58.5 11.2 26.8 11.2 56.2 0.1 83-11 26.8-31.7 47.6-58.5 58.8-13.5 5.5-27.5 8.4-41.6 8.4zm-4.6-16.6c12.8 0.7 25.7-1.4 37.8-6.2-17.1-6.6-30.8-20.4-36.9-38.3-5.4-0.4-10.7-1.7-15.6-4-1.3 4.3-2 8.8-2 13.2 0.1 13.3 6 26.4 16.7 35.3zm-58.1-24.4c8 7.4 17.2 13.3 27.5 17.6q2.8 1 5.5 2.1c-5.2-9.3-7.9-19.8-7.9-30.4 0-7.7 1.4-15.3 4.3-22.7-3.9-3.8-7.1-8.1-9.5-13-12.9 8.5-20.6 22.9-20.6 38.2 0 2.7 0.3 5.5 0.7 8.2zm76-21.8c7.2 16.6 23.6 27.6 42 27.6h0.2c10.3-7.8 18.8-17.7 25.1-29-17.3 6.1-36.7 4.2-52.9-5.5-3 2.1-6.1 3.9-9.5 5.2-1.5 0.6-3.2 1.3-4.9 1.7zm-98.2-10.3c1.8 4.4 4 8.5 6.2 12.4 3.4-18 14.8-34 31.3-43-0.5-5.4-0.1-10.8 1.2-16-18-2.2-35.9 6.6-45.1 22.8q1.5 12.1 6.4 23.8zm124.4-9c16.1 8.1 36 6 50.1-5.9 3-12.6 3.1-25.8 0.6-38.4-9.4 15.7-25.4 26.9-44.1 29.7-1.4 5.1-3.5 10.1-6.6 14.6zm-37.6 4.7c3.4-0.3 6.8-1 10-2.3 3.5-1.4 6.8-3.5 9.6-6.3 5.2-5.1 8.6-11.9 9.5-19.2 0.5-5.2-0.2-10.4-2.3-15.3-0.7-1.8-1.7-3.6-2.8-5.3-4.1-6.1-10.2-10.5-17.2-12.6-6.8-2-13.8-1.6-20.5 1.1-0.3 0.1-0.6 0.3-0.7 0.3-6.7 2.9-12.2 8.2-15.3 14.7-3.3 6.5-4.1 14-2.3 21.1 0.4 1.9 0.9 3.3 1.4 4.5 2 5.4 5.7 10 10.2 13.4 6 4.4 13.2 6.3 20.4 5.9zm41-51.7c0.4 0.7 0.7 1.6 1 2.3q2.5 6.3 3.4 13.1c17.5-4.2 31.3-18.5 34.5-36.8-5.9-11.6-14.1-21.8-24.3-29.9 0.5 3.4 0.8 6.7 0.8 10.1 0 14.9-5.2 29.6-15.4 41.2zm-120.3-29.3c-3 4.7-5.5 9.6-7.8 14.9-2.8 6.8-4.8 13.8-5.9 21.1 14.1-11.7 33.1-16.6 51.7-12.9 2.9-4.4 6.8-8.4 11.2-11.5-12.4-13.3-31.8-18-49.2-11.6zm97 6.5c5 2.3 9.5 5.2 13.4 8.9 5.9-8.1 9-17.5 9-27.3 0-8-2-15.9-6.2-23.1-0.3-0.2-0.4-0.2-0.7-0.3-11.9-5-24.5-7.2-37.1-6.9 13.6 11.6 21.6 28.7 21.6 47.1 0 0.6 0 1.2 0 1.6zm-80.4-25.8c18.3 0.3 36 8.5 47.9 23.4 5.2-1.4 10.6-2 16-1.7-1.2-18.1-12.8-34.2-30.2-40.4-2.8 0.9-5.5 1.9-8.2 3q-14.3 5.9-25.5 15.7z"/>
			</g>
		</g>
		<g id="Layer">
			<path id="Layer" class="s0" d="m202.2 456.6h-34.9c-4.5 0-8.2-3.6-8.2-8.2v-22.8c0-4.5 3.7-8.2 8.2-8.2 4.6 0 8.2 3.7 8.2 8.2v14.6h18.5v-14.6c0-4.5 3.6-8.2 8.2-8.2 4.5 0 8.2 3.7 8.2 8.2v22.8c0 4.6-3.7 8.2-8.2 8.2z"/>
		</g>
		<g id="Layer">
			<path id="Layer" class="s0" d="m407.6 456.6h-176.8c-4.5 0-8.2-3.6-8.2-8.2v-22.8c0-4.5 3.7-8.2 8.2-8.2 4.5 0 8.2 3.7 8.2 8.2v14.6h160.4v-14.6c0-4.5 3.6-8.2 8.2-8.2 4.5 0 8.2 3.7 8.2 8.2v22.8c0 4.6-3.7 8.2-8.2 8.2z"/>
		</g>
		<g id="Layer">
			<path id="Layer" class="s0" d="m356.4 204.1h-52.7c-1.9 0-3.9-0.8-5.5-2.2l-37.7-33.4c-3.4-3-3.6-8.2-0.7-11.6 3-3.4 8.2-3.7 11.6-0.7l35.3 31.3h46.3l35.3-31.3c3.4-3 8.7-2.7 11.6 0.7 3 3.4 2.7 8.6-0.7 11.6l-37.7 33.4c-1.2 1.4-3.1 2.2-5.1 2.2z"/>
		</g>
		<g id="Layer">
			<path id="Layer" class="s0" d="m266.1 431.6c-2.3 0-4.6-1-6.1-2.7-3-3.4-2.7-8.7 0.7-11.6l37.7-33.5c1.5-1.2 3.4-2.1 5.5-2.1h52.7c2 0 3.9 0.7 5.5 2.1l37.7 33.5c3.4 2.9 3.7 8.2 0.7 11.6-3 3.4-8.2 3.7-11.6 0.7l-35.3-31.5h-46.3l-35.3 31.5c-2 1.3-4 2-5.9 2z"/>
		</g>
		<g id="Layer">
			<path id="Layer" class="s0" d="m590.2 225.6c-1.3 0-2.7-0.3-4-1l-101.3-55c-3.9-2.1-5.5-7.2-3.2-11.2 2.1-3.9 7.2-5.5 11.2-3.2l101.3 54.9c3.9 2.2 5.5 7.3 3.2 11.2-1.4 2.7-4.2 4.3-7.2 4.3z"/>
		</g>
		<g id="Layer">
			<path id="Layer" class="s0" d="m488.9 431.6c-3 0-5.8-1.6-7.2-4.3-2.2-3.9-0.7-8.9 3.2-11.2l101.3-54.9c4-2.2 8.9-0.7 11.2 3.2 2.1 4 0.7 8.9-3.2 11.2l-101.3 55c-1.3 0.7-2.7 1-4 1z"/>
		</g>
		<g id="Layer">
			<path id="Layer" fill-rule="evenodd" class="s0" d="m566.1 431.6h-473c-3.3 0-6.2-2-7.5-5l-24.2-55c-0.5-0.9-0.8-2.1-0.8-3.2v-151c0-1.2 0.3-2.3 0.8-3.3l24.2-55c1.3-2.9 4.2-4.9 7.5-4.9h472.9c3.2 0 6.2 2 7.5 4.9l24.2 55c0.4 1 0.7 2.1 0.7 3.3v150.8c0 1.2-0.3 2.3-0.7 3.3l-24.1 55.1c-1.4 3-4.2 5-7.5 5zm-467.6-16.5h462.1l21.2-48.6v-147.3l-21.2-48.6h-462.1l-21.3 48.6v147.5z"/>
		</g>
		<g id="Layer">
			<path id="Layer" class="s0" d="m69 225.6c-3 0-5.8-1.6-7.2-4.3-2.1-3.9-0.7-8.9 3.2-11.2l101.3-54.9c4-2.1 9-0.7 11.2 3.2 2.1 4 0.7 9-3.2 11.2l-101.3 55c-1.3 0.7-2.7 1-4 1z"/>
		</g>
		<g id="Layer">
			<path id="Layer" class="s0" d="m170.3 431.6c-1.3 0-2.7-0.3-4-1l-101.3-55.1c-3.9-2.2-5.5-7.1-3.2-11.2 2.1-4 7.1-5.5 11.2-3.3l101.3 55c3.9 2.1 5.5 7.1 3.2 11.2-1.4 2.8-4.2 4.4-7.2 4.4z"/>
		</g>
	</g>
	<g id="Layer">
		<path id="Layer" class="s0" d="m86.3 187.6h-41.1c-4.5 0-8.2-3.7-8.2-8.2 0-4.5 3.7-8.2 8.2-8.2h41.1c4.5 0 8.2 3.7 8.2 8.2 0 4.5-3.7 8.2-8.2 8.2z"/>
	</g>
	<g id="Layer">
		<path id="Layer" class="s0" d="m80.6 404.4h-35.4c-4.5 0-8.2-3.7-8.2-8.2 0-4.6 3.7-8.3 8.2-8.3h35.4c4.6 0 8.2 3.7 8.2 8.3 0 4.5-3.6 8.2-8.2 8.2z"/>
	</g>
</svg>