<svg version="1.2" xmlns="http://www.w3.org/2000/svg" viewBox="0 0 100 100" width="100" height="100">
	<title>overclock-svg</title>
	<style>
		.s0 { fill: #000000 } 
	</style>
	<g id="Layer">
		<path id="Layer" class="s0" d="m32.7 84.6h11.5v11.5h-11.5z"/>
		<path id="Layer" class="s0" d="m55.8 84.6h11.5v11.5h-11.5z"/>
		<path id="Layer" class="s0" d="m44.2 26.9v18.9c-4.5 2.6-6.7 7.9-5.3 13 1.3 5 5.9 8.5 11.1 8.5 5.2 0 9.8-3.5 11.1-8.5 1.4-5.1-0.8-10.4-5.3-13v-18.9z"/>
		<path id="Layer" class="s0" d="m50 3.9c-8.4 0-16.7 2.3-23.9 6.7-7.2 4.3-13.1 10.6-17 18.1-3.8 7.4-5.6 15.8-5.1 24.2 0.5 8.4 3.4 16.5 8.2 23.5l3.3 4.7 9.4-6.6-3.3-4.7c-7.3-10.6-8.2-24.4-2.3-35.8 6-11.4 17.8-18.6 30.7-18.6 12.9 0 24.7 7.2 30.7 18.6 5.9 11.4 5 25.2-2.3 35.8l-3.3 4.7 9.4 6.6 3.3-4.7c4.8-6.9 7.7-15 8.2-23.5 0.5-8.4-1.2-16.8-5.1-24.2-3.9-7.5-9.8-13.8-17-18.1-7.2-4.4-15.5-6.7-23.9-6.7z"/>
	</g>
</svg>