<?xml version="1.0" standalone="no"?>
<svg version="1.0" xmlns="http://www.w3.org/2000/svg"
 width="512.000000pt" height="512.000000pt" viewBox="0 0 512.000000 512.000000"
 preserveAspectRatio="xMidYMid meet">

<g transform="translate(0.000000,512.000000) scale(0.100000,-0.100000)"
fill="#fff" stroke="none">
<path d="M555 5106 c-106 -26 -143 -52 -316 -225 -184 -184 -209 -222 -231
-350 -9 -56 -9 -86 0 -141 26 -151 -7 -114 890 -1012 l817 -818 -821 -822
c-772 -774 -822 -827 -848 -887 -58 -132 -58 -264 1 -389 37 -82 333 -378 415
-415 85 -40 182 -54 269 -39 149 26 105 -13 1006 886 l823 821 817 -817 c899
-897 862 -864 1013 -890 86 -15 184 -1 268 39 82 37 378 333 415 415 40 84 54
182 39 268 -26 151 7 114 -890 1012 l-817 818 817 818 c897 898 864 861 890
1012 15 86 1 184 -39 268 -37 81 -332 376 -415 415 -124 59 -257 59 -389 1
-60 -26 -113 -76 -887 -848 l-822 -821 -823 821 c-702 701 -830 824 -877 846
-101 47 -205 59 -305 34z"/>
</g>
</svg>
