 <svg version="1.0" xmlns="http://www.w3.org/2000/svg"  width="900.000000pt" height="900.000000pt" viewBox="0 0 900.000000 900.000000"  preserveAspectRatio="xMidYMid meet">  <g transform="translate(0.000000,900.000000) scale(0.100000,-0.100000)" fill="#666666" stroke="none"> <path d="M3888 8961 c-10 -20 -18 -44 -18 -52 0 -9 -7 -24 -15 -35 -8 -10 -15 -28 -15 -39 0 -11 -7 -33 -15 -49 -8 -15 -15 -36 -15 -45 0 -10 -7 -26 -15 -37 -8 -10 -15 -28 -15 -39 0 -11 -7 -33 -15 -49 -8 -15 -15 -36 -15 -45 0 -10 -7 -26 -15 -37 -8 -10 -15 -31 -15 -45 0 -15 -7 -32 -15 -39 -8 -7 -15 -25 -15 -39 0 -15 -7 -36 -15 -47 -8 -10 -15 -27 -15 -36 0 -14 -49 -116 -83 -173 -73 -122 -217 -262 -340 -332 -92 -52 -196 -91 -272 -104 -27 -4 -70 -12 -95 -18 -25 -6 -72 -10 -105 -10 -33 0 -80 4 -105 10 -25 6 -69 14 -98 18 -28 4 -57 12 -64 19 -7 7 -23 12 -36 12 -21 0 -51 12 -102 41 -8 5 -22 12 -30 15 -8 3 -42 18 -75 34 -33 16 -70 31 -82 35 -13 3 -23 10 -23 15 0 5 -13 11 -30 15 -17 4 -30 11 -30 16 0 5 -7 9 -15 9 -13 0 -113 46 -155 71 -8 5 -22 12 -30 15 -8 3 -42 19 -75 35 -33 16 -65 29 -70 29 -14 0 -845 -832 -845 -845 0 -9 51 -120 71 -155 5 -8 12 -22 15 -30 3 -8 19 -41 35 -73 16 -31 29 -64 29 -72 0 -8 4 -15 9 -15 5 0 12 -13 16 -30 4 -16 11 -30 16 -30 5 0 9 -5 9 -12 0 -10 60 -143 81 -178 5 -8 12 -22 15 -30 3 -8 12 -27 20 -42 8 -14 14 -37 14 -50 0 -13 5 -29 12 -36 7 -7 15 -36 19 -64 4 -29 12 -73 18 -98 6 -25 10 -72 10 -105 0 -33 -4 -80 -10 -105 -6 -25 -14 -67 -18 -95 -13 -76 -53 -181 -103 -270 -61 -106 -149 -205 -259 -290 -71 -55 -217 -135 -248 -135 -9 0 -25 -7 -35 -15 -11 -8 -32 -15 -47 -15 -14 0 -32 -7 -39 -15 -7 -8 -24 -15 -39 -15 -14 0 -35 -7 -45 -15 -11 -8 -27 -15 -37 -15 -9 0 -30 -7 -45 -15 -16 -8 -38 -15 -49 -15 -11 0 -29 -7 -39 -15 -11 -8 -29 -15 -40 -15 -12 0 -30 -7 -40 -15 -11 -8 -31 -15 -45 -15 -14 0 -35 -7 -45 -15 -11 -8 -28 -15 -38 -15 -10 0 -30 -7 -43 -16 l-25 -16 0 -589 0 -588 30 -16 c16 -8 37 -15 48 -15 10 0 27 -7 38 -15 10 -8 28 -15 40 -15 11 0 29 -7 40 -15 10 -8 31 -15 45 -15 14 0 34 -7 45 -15 10 -8 28 -15 40 -15 11 0 29 -7 40 -15 10 -8 28 -15 39 -15 11 0 33 -7 49 -15 15 -8 36 -15 45 -15 10 0 26 -7 37 -15 10 -8 28 -15 40 -15 11 0 29 -7 40 -15 10 -8 28 -15 40 -15 11 0 29 -7 40 -15 10 -8 25 -15 33 -15 15 0 128 -66 149 -87 7 -7 17 -13 21 -13 14 0 164 -152 196 -198 37 -53 82 -129 96 -162 6 -14 17 -37 25 -52 8 -14 14 -35 14 -45 0 -10 5 -24 11 -30 6 -6 15 -37 19 -69 5 -33 13 -79 19 -104 13 -58 13 -153 0 -210 -6 -25 -14 -69 -18 -98 -4 -28 -12 -57 -19 -64 -7 -7 -12 -24 -12 -39 0 -15 -7 -32 -15 -39 -8 -7 -15 -19 -15 -26 0 -8 -13 -40 -29 -71 -66 -135 -101 -211 -101 -221 0 -7 -4 -12 -10 -12 -5 0 -10 -7 -10 -16 0 -14 -15 -48 -41 -94 -5 -8 -12 -22 -15 -30 -3 -8 -10 -22 -15 -30 -5 -8 -12 -22 -15 -30 -3 -8 -10 -22 -15 -30 -5 -8 -12 -22 -15 -30 -3 -8 -12 -28 -20 -43 -7 -16 -14 -34 -14 -40 0 -19 834 -847 853 -847 9 0 17 4 17 9 0 5 10 13 23 16 22 6 138 59 167 76 8 5 22 12 30 15 8 3 22 10 30 15 8 5 22 12 30 15 8 3 22 10 30 15 8 5 22 12 30 15 8 3 27 12 42 20 14 8 33 14 42 14 9 0 16 5 16 10 0 6 5 10 12 10 10 0 117 49 190 86 14 8 35 14 45 14 10 0 24 5 30 11 6 6 35 14 64 19 30 5 72 13 94 19 52 14 189 14 240 0 22 -6 64 -14 93 -18 28 -4 57 -12 64 -19 7 -7 21 -12 32 -12 28 0 161 -66 230 -114 81 -57 185 -160 238 -236 50 -74 118 -203 118 -228 0 -9 7 -26 15 -36 8 -11 15 -32 15 -47 0 -14 7 -32 15 -39 8 -7 15 -24 15 -39 0 -14 7 -35 15 -45 8 -11 15 -29 15 -40 0 -12 7 -30 15 -40 8 -11 15 -32 15 -48 0 -15 4 -28 10 -28 5 0 12 -17 16 -37 4 -21 13 -47 20 -58 8 -11 14 -31 14 -46 0 -15 7 -32 15 -39 8 -7 15 -23 15 -37 0 -13 7 -35 16 -48 l16 -25 587 0 587 0 17 29 c9 16 17 38 17 48 0 11 7 28 15 39 8 10 15 28 15 40 0 11 7 29 15 40 8 10 15 31 15 45 0 14 7 34 15 45 8 10 15 28 15 40 0 11 7 29 15 40 8 10 15 31 15 45 0 14 7 34 15 45 8 10 15 28 15 40 0 11 7 29 15 40 8 10 15 28 15 39 0 11 6 32 14 47 8 15 17 40 21 57 4 17 11 31 16 31 5 0 9 7 9 16 0 17 64 129 87 152 7 7 13 17 13 22 0 17 165 174 225 216 71 49 203 114 231 114 11 0 25 5 32 12 6 6 33 15 59 19 27 4 68 13 93 19 55 14 266 8 283 -9 6 -6 27 -11 47 -11 19 0 48 -7 64 -15 15 -8 34 -15 42 -15 8 0 40 -13 71 -28 112 -56 188 -91 211 -97 12 -3 22 -11 22 -16 0 -5 7 -9 15 -9 9 0 41 -14 72 -30 31 -17 61 -30 68 -30 7 0 18 -7 25 -15 7 -8 21 -15 31 -15 9 0 24 -7 33 -15 8 -8 20 -15 26 -15 7 0 24 -7 38 -14 15 -8 44 -23 65 -32 l39 -17 419 419 c230 230 419 424 419 430 0 6 -13 36 -30 67 -16 31 -30 62 -30 68 0 6 -7 17 -15 25 -8 9 -15 24 -15 33 0 10 -7 24 -15 31 -8 7 -15 20 -15 30 0 10 -7 23 -15 30 -8 7 -15 20 -15 29 0 9 -7 25 -15 35 -8 11 -15 28 -15 38 0 10 -4 18 -9 18 -5 0 -13 10 -16 23 -6 22 -41 98 -97 210 -15 31 -28 65 -28 75 0 10 -5 23 -11 29 -6 6 -14 35 -19 64 -5 30 -14 74 -20 99 -14 54 -8 256 9 273 6 6 11 29 11 52 0 23 7 50 15 61 8 10 15 28 15 38 0 29 66 161 118 236 42 62 195 220 212 220 5 0 15 6 22 13 19 19 134 87 146 87 6 0 23 6 39 14 54 28 101 46 120 46 10 0 27 7 37 15 11 8 29 15 40 15 12 0 30 7 40 15 11 8 31 15 45 15 14 0 35 7 45 15 11 8 29 15 40 15 12 0 30 7 40 15 11 8 31 15 45 15 14 0 35 7 45 15 11 8 29 15 40 15 12 0 30 7 40 15 11 8 29 15 41 15 12 0 30 7 41 15 10 8 27 15 37 15 16 0 17 35 17 588 l-1 587 -38 18 c-20 9 -47 17 -58 17 -11 0 -26 7 -33 15 -7 8 -24 15 -39 15 -15 0 -35 6 -46 14 -11 7 -37 16 -57 20 -21 4 -38 11 -38 16 0 6 -13 10 -28 10 -16 0 -37 7 -48 15 -10 8 -28 15 -40 15 -11 0 -29 7 -40 15 -10 8 -31 15 -46 15 -15 0 -33 7 -42 15 -8 8 -25 15 -38 15 -13 0 -33 7 -44 15 -10 8 -27 15 -36 15 -24 0 -154 67 -224 116 -80 55 -146 120 -219 214 -57 74 -135 223 -135 258 0 10 -5 23 -12 30 -7 7 -15 36 -19 64 -4 29 -12 71 -18 93 -14 51 -14 188 0 240 6 22 14 64 19 94 5 29 13 58 19 64 6 6 11 20 11 30 0 10 6 31 14 45 30 60 75 158 81 180 3 12 11 22 16 22 5 0 9 7 9 15 0 13 46 113 71 155 5 8 12 22 15 30 3 8 10 22 15 30 5 8 12 22 15 30 3 8 18 42 34 75 16 33 31 70 35 83 3 12 11 22 16 22 5 0 9 8 9 17 0 20 -828 853 -847 853 -10 0 -51 -18 -93 -42 -8 -4 -22 -11 -30 -14 -8 -3 -22 -10 -30 -15 -8 -5 -22 -12 -30 -15 -8 -3 -41 -19 -73 -35 -31 -16 -64 -29 -72 -29 -8 0 -15 -4 -15 -10 0 -5 -5 -10 -12 -10 -10 0 -86 -35 -221 -101 -31 -16 -63 -29 -71 -29 -7 0 -19 -7 -26 -15 -7 -8 -24 -15 -39 -15 -15 0 -32 -5 -39 -12 -7 -7 -38 -15 -70 -19 -31 -4 -75 -12 -97 -18 -50 -13 -146 -13 -205 0 -25 6 -71 14 -104 19 -32 4 -63 13 -69 19 -6 6 -20 11 -30 11 -10 0 -31 6 -45 14 -15 8 -38 19 -52 25 -47 20 -110 58 -167 102 -59 44 -193 176 -193 190 0 4 -6 14 -13 21 -21 21 -87 134 -87 149 0 8 -7 23 -15 33 -8 11 -15 29 -15 40 0 12 -7 30 -15 40 -8 11 -15 29 -15 40 0 12 -7 30 -15 40 -8 11 -15 27 -15 37 0 9 -7 30 -15 45 -8 16 -15 38 -15 49 0 11 -7 29 -15 39 -8 11 -15 29 -15 40 0 12 -7 30 -15 40 -8 11 -15 31 -15 45 0 14 -7 35 -15 45 -8 11 -15 29 -15 40 0 12 -7 30 -15 40 -8 11 -15 27 -15 35 0 9 -8 35 -17 58 l-18 43 -585 0 -585 -1 -17 -38z m757 -2372 c33 -5 100 -13 149 -18 48 -5 93 -14 99 -20 6 -6 29 -11 51 -11 23 0 54 -7 70 -15 15 -8 40 -15 55 -15 15 0 36 -7 47 -15 10 -8 31 -15 45 -15 14 0 34 -7 45 -15 10 -8 28 -15 39 -15 11 0 29 -6 40 -14 11 -7 32 -16 48 -20 15 -3 27 -11 27 -16 0 -6 7 -10 15 -10 14 0 95 -38 105 -50 3 -3 16 -11 30 -17 58 -29 152 -88 205 -131 6 -4 46 -35 90 -69 94 -72 262 -241 331 -333 26 -36 51 -67 54 -70 11 -9 97 -144 121 -190 13 -25 27 -47 30 -50 5 -5 38 -73 66 -137 36 -86 47 -110 60 -135 7 -14 13 -37 13 -50 0 -12 7 -32 15 -42 8 -11 15 -32 15 -47 0 -15 7 -40 15 -55 8 -16 15 -45 15 -64 0 -19 7 -53 15 -75 8 -22 14 -71 15 -108 0 -38 4 -76 9 -85 15 -28 22 -232 11 -312 -6 -41 -15 -116 -19 -165 -4 -50 -12 -99 -18 -110 -6 -11 -13 -44 -16 -74 -4 -30 -11 -59 -17 -65 -5 -5 -10 -24 -10 -41 0 -17 -7 -40 -15 -51 -8 -10 -15 -28 -15 -40 0 -11 -7 -29 -15 -40 -8 -10 -15 -27 -15 -37 0 -11 -6 -31 -13 -45 -8 -15 -22 -45 -31 -67 -38 -86 -115 -229 -127 -233 -5 -2 -9 -9 -9 -16 0 -6 -7 -21 -15 -31 -8 -11 -49 -67 -91 -125 -98 -134 -280 -316 -414 -414 -58 -42 -114 -83 -125 -91 -10 -8 -25 -15 -31 -15 -7 0 -14 -4 -16 -9 -4 -12 -147 -89 -233 -127 -22 -9 -52 -23 -67 -31 -14 -7 -34 -13 -45 -13 -10 0 -27 -7 -37 -15 -11 -8 -29 -15 -40 -15 -12 0 -30 -7 -40 -15 -11 -8 -32 -15 -47 -15 -15 0 -40 -7 -55 -15 -16 -8 -46 -15 -67 -15 -21 0 -48 -5 -60 -12 -12 -6 -62 -15 -112 -19 -49 -5 -134 -14 -188 -20 -73 -9 -121 -9 -195 0 -53 6 -138 15 -187 20 -50 4 -100 13 -112 19 -12 7 -39 12 -60 12 -21 0 -51 7 -67 15 -15 8 -40 15 -55 15 -15 0 -36 7 -47 15 -10 8 -30 15 -42 15 -13 0 -36 6 -50 13 -27 14 -80 38 -137 62 -57 24 -130 58 -135 64 -3 3 -25 17 -50 30 -47 25 -181 110 -190 121 -3 3 -41 34 -85 67 -94 72 -262 241 -331 333 -26 36 -51 67 -54 70 -6 6 -68 100 -104 158 -48 77 -96 171 -96 187 0 8 -4 15 -10 15 -5 0 -13 12 -16 28 -4 15 -13 36 -20 47 -8 11 -14 29 -14 40 0 11 -7 29 -15 39 -8 11 -15 31 -15 45 0 14 -7 35 -15 45 -8 11 -15 32 -15 47 0 15 -7 40 -15 55 -8 16 -15 47 -15 70 0 22 -5 45 -11 51 -6 6 -15 51 -20 99 -5 49 -13 118 -18 154 -12 81 -7 325 8 363 6 16 11 54 11 85 1 31 7 75 15 97 8 22 15 54 15 70 0 17 7 43 15 59 8 15 15 40 15 55 0 15 7 36 15 47 8 10 15 31 15 45 0 14 7 34 15 45 8 10 15 28 15 39 0 11 6 29 14 40 7 11 16 32 20 48 3 15 11 27 16 27 6 0 10 11 10 24 0 13 7 29 15 36 8 7 15 18 15 26 0 7 6 19 13 26 7 7 18 24 24 38 33 66 119 202 150 235 10 11 27 34 37 50 30 46 244 261 311 313 33 25 62 49 65 53 7 8 149 109 155 109 2 0 38 20 78 45 41 25 79 45 85 45 5 0 15 7 22 15 7 8 23 15 36 15 13 0 24 4 24 10 0 5 12 13 28 16 15 4 36 13 47 20 11 8 29 14 40 14 11 0 29 7 39 15 11 8 31 15 45 15 14 0 35 7 45 15 11 8 32 15 47 15 15 0 40 7 55 15 16 8 44 15 62 15 18 0 43 5 55 12 12 6 60 15 107 20 47 4 110 12 140 17 74 11 241 11 315 0z"/> <path d="M4365 5680 c-55 -3 -113 -11 -128 -18 -16 -7 -43 -12 -60 -12 -18 0 -41 -7 -51 -15 -11 -8 -29 -15 -40 -15 -12 0 -30 -7 -40 -15 -11 -8 -30 -15 -43 -15 -13 0 -23 -3 -23 -8 0 -4 -24 -18 -52 -32 -192 -90 -408 -306 -498 -497 -14 -29 -28 -53 -32 -53 -5 0 -8 -10 -8 -23 0 -13 -7 -32 -15 -43 -8 -10 -15 -28 -15 -40 0 -11 -7 -29 -15 -40 -8 -10 -15 -34 -15 -52 0 -18 -7 -49 -16 -70 -12 -30 -15 -79 -15 -245 -1 -138 3 -213 11 -221 6 -8 13 -38 17 -67 3 -30 12 -63 19 -74 8 -11 14 -27 14 -36 0 -10 7 -30 15 -46 7 -15 24 -49 35 -75 12 -27 26 -50 31 -54 5 -3 9 -14 9 -24 0 -10 4 -20 8 -22 4 -1 19 -21 32 -43 33 -54 60 -85 155 -180 83 -83 141 -135 150 -135 9 0 69 -44 73 -52 2 -5 12 -8 22 -8 9 0 23 -7 30 -15 7 -8 20 -15 30 -15 10 0 23 -7 30 -15 7 -8 20 -15 29 -15 10 0 26 -7 37 -15 10 -8 31 -15 45 -15 14 0 34 -7 45 -15 10 -8 34 -15 51 -15 18 0 50 -7 71 -15 32 -13 76 -15 243 -12 191 3 234 8 324 39 17 5 41 12 55 15 24 4 79 27 110 45 8 4 22 11 30 14 8 3 22 9 30 14 8 5 34 19 58 31 23 13 42 26 42 30 0 4 10 11 21 14 28 9 64 41 164 140 99 100 131 136 140 164 3 11 10 21 14 21 4 0 17 19 30 43 23 45 35 67 51 95 6 9 13 24 16 32 3 8 12 28 20 43 7 16 14 39 14 51 0 12 7 31 15 42 8 10 15 34 15 52 0 18 7 49 15 69 12 27 15 80 15 233 0 153 -3 206 -15 233 -8 20 -15 51 -15 69 0 18 -7 42 -15 52 -8 11 -15 31 -15 45 0 14 -7 35 -15 45 -8 11 -15 27 -15 37 0 9 -7 22 -15 29 -8 7 -15 20 -15 30 0 10 -7 23 -15 30 -8 7 -15 21 -15 30 0 10 -3 20 -7 22 -9 4 -53 64 -53 73 0 9 -52 67 -135 150 -95 95 -126 122 -180 155 -22 13 -41 28 -43 32 -2 4 -12 8 -22 8 -10 0 -21 4 -24 9 -4 5 -27 19 -54 31 -26 11 -60 28 -75 35 -16 8 -36 15 -46 15 -9 0 -25 6 -36 14 -11 7 -44 16 -74 19 -29 4 -58 10 -65 15 -14 12 -223 19 -351 12z"/> </g> </svg> 