<?xml version="1.0" encoding="utf-8"?><svg version="1.1" xmlns="http://www.w3.org/2000/svg" xmlns:xlink="http://www.w3.org/1999/xlink" x="0px" y="0px" viewBox="0 0 17.74 17.74" style="enable-background:new 0 0 17.74 17.74;" xml:space="preserve" fill="#ffffff"><g><path d="M8.87,17.74C3.98,17.74,0,13.76,0,8.87S3.98,0,8.87,0c1.32,0,2.58,0.28,3.77,0.84c0.75,0.35,1.07,1.25,0.72,2s-1.25,1.07-2,0.72C10.58,3.19,9.74,3,8.87,3C5.63,3,3,5.63,3,8.87s2.63,5.87,5.87,5.87c3.24,0,5.87-2.63,5.87-5.87c0-0.63-0.1-1.25-0.29-1.83c-0.26-0.79,0.17-1.63,0.96-1.89c0.78-0.26,1.63,0.17,1.89,0.96c0.29,0.89,0.44,1.82,0.44,2.77C17.74,13.76,13.76,17.74,8.87,17.74z"/></g></svg>
